<mxfile host="app.diagrams.net" agent="Mozilla/5.0 (Macintosh; Intel Mac OS X 10_15_7) AppleWebKit/605.1.15 (KHTML, like Gecko) Version/18.6 Safari/605.1.15" version="28.2.5">
  <diagram name="PÃ¡gina-1" id="B2XnIv6wiDSlvRUU-a98">
    <mxGraphModel dx="1148" dy="724" grid="1" gridSize="10" guides="1" tooltips="1" connect="1" arrows="1" fold="1" page="1" pageScale="1" pageWidth="827" pageHeight="1169" math="0" shadow="0">
      <root>
        <mxCell id="0" />
        <mxCell id="1" parent="0" />
        <mxCell id="Mavh1etGCZN7SNpF_kbl-1" value="" style="rounded=1;whiteSpace=wrap;html=1;fillColor=none;fontColor=#000000;strokeColor=#B09500;" parent="1" vertex="1">
          <mxGeometry x="240" y="10" width="370" height="240" as="geometry" />
        </mxCell>
        <mxCell id="Mavh1etGCZN7SNpF_kbl-2" value="" style="rounded=1;whiteSpace=wrap;html=1;fillColor=#e51400;fontColor=#ffffff;strokeColor=#B20000;" parent="1" vertex="1">
          <mxGeometry x="260" y="30" width="320" height="20" as="geometry" />
        </mxCell>
        <mxCell id="Mavh1etGCZN7SNpF_kbl-3" value="" style="rounded=1;whiteSpace=wrap;html=1;fillColor=#b0e3e6;strokeColor=#0e8088;" parent="1" vertex="1">
          <mxGeometry x="260" y="70" width="320" height="20" as="geometry" />
        </mxCell>
        <object label="" id="Mavh1etGCZN7SNpF_kbl-4">
          <mxCell style="rounded=1;whiteSpace=wrap;html=1;fillColor=#b0e3e6;strokeColor=#0e8088;" parent="1" vertex="1">
            <mxGeometry x="260" y="110" width="60" height="30" as="geometry" />
          </mxCell>
        </object>
        <mxCell id="Mavh1etGCZN7SNpF_kbl-5" value="" style="rounded=1;whiteSpace=wrap;html=1;fillColor=#b0e3e6;strokeColor=#0e8088;" parent="1" vertex="1">
          <mxGeometry x="260" y="150" width="60" height="30" as="geometry" />
        </mxCell>
        <mxCell id="Mavh1etGCZN7SNpF_kbl-6" value="" style="rounded=1;whiteSpace=wrap;html=1;fillColor=#b0e3e6;strokeColor=#0e8088;" parent="1" vertex="1">
          <mxGeometry x="260" y="190" width="60" height="30" as="geometry" />
        </mxCell>
        <mxCell id="Mavh1etGCZN7SNpF_kbl-7" value="" style="rounded=1;whiteSpace=wrap;html=1;fillColor=#b0e3e6;strokeColor=#0e8088;" parent="1" vertex="1">
          <mxGeometry x="350" y="110" width="60" height="30" as="geometry" />
        </mxCell>
        <mxCell id="Mavh1etGCZN7SNpF_kbl-8" value="" style="rounded=1;whiteSpace=wrap;html=1;fillColor=#b0e3e6;strokeColor=#0e8088;" parent="1" vertex="1">
          <mxGeometry x="350" y="150" width="60" height="30" as="geometry" />
        </mxCell>
        <mxCell id="Mavh1etGCZN7SNpF_kbl-9" value="" style="rounded=1;whiteSpace=wrap;html=1;fillColor=#b0e3e6;strokeColor=#0e8088;" parent="1" vertex="1">
          <mxGeometry x="350" y="190" width="60" height="30" as="geometry" />
        </mxCell>
        <mxCell id="Mavh1etGCZN7SNpF_kbl-10" value="" style="rounded=1;whiteSpace=wrap;html=1;fillColor=#b0e3e6;strokeColor=#0e8088;" parent="1" vertex="1">
          <mxGeometry x="440" y="110" width="60" height="30" as="geometry" />
        </mxCell>
        <mxCell id="Mavh1etGCZN7SNpF_kbl-11" value="" style="rounded=1;whiteSpace=wrap;html=1;fillColor=#b0e3e6;strokeColor=#0e8088;" parent="1" vertex="1">
          <mxGeometry x="440" y="150" width="60" height="30" as="geometry" />
        </mxCell>
        <mxCell id="Mavh1etGCZN7SNpF_kbl-12" value="" style="rounded=1;whiteSpace=wrap;html=1;fillColor=#b0e3e6;strokeColor=#0e8088;" parent="1" vertex="1">
          <mxGeometry x="440" y="190" width="60" height="30" as="geometry" />
        </mxCell>
        <mxCell id="Mavh1etGCZN7SNpF_kbl-13" value="" style="rounded=1;whiteSpace=wrap;html=1;fillColor=#b0e3e6;strokeColor=#0e8088;" parent="1" vertex="1">
          <mxGeometry x="523" y="110" width="60" height="30" as="geometry" />
        </mxCell>
        <mxCell id="Mavh1etGCZN7SNpF_kbl-14" value="" style="rounded=1;whiteSpace=wrap;html=1;fillColor=#b0e3e6;strokeColor=#0e8088;" parent="1" vertex="1">
          <mxGeometry x="523" y="150" width="60" height="30" as="geometry" />
        </mxCell>
        <mxCell id="Mavh1etGCZN7SNpF_kbl-15" value="" style="rounded=1;whiteSpace=wrap;html=1;fillColor=#b0e3e6;strokeColor=#0e8088;" parent="1" vertex="1">
          <mxGeometry x="523" y="190" width="60" height="30" as="geometry" />
        </mxCell>
        <mxCell id="Mavh1etGCZN7SNpF_kbl-17" value="" style="rounded=1;whiteSpace=wrap;html=1;fillColor=none;fontColor=#000000;strokeColor=#B09500;" parent="1" vertex="1">
          <mxGeometry x="20" y="370" width="370" height="240" as="geometry" />
        </mxCell>
        <mxCell id="Mavh1etGCZN7SNpF_kbl-18" value="" style="rounded=1;whiteSpace=wrap;html=1;fillColor=#e51400;fontColor=#ffffff;strokeColor=#B20000;" parent="1" vertex="1">
          <mxGeometry x="40" y="390" width="320" height="20" as="geometry" />
        </mxCell>
        <mxCell id="Mavh1etGCZN7SNpF_kbl-19" value="" style="rounded=1;whiteSpace=wrap;html=1;fillColor=#b0e3e6;strokeColor=#0e8088;" parent="1" vertex="1">
          <mxGeometry x="40" y="430" width="320" height="20" as="geometry" />
        </mxCell>
        <mxCell id="Mavh1etGCZN7SNpF_kbl-20" value="" style="rounded=1;whiteSpace=wrap;html=1;fillColor=#b0e3e6;strokeColor=#0e8088;" parent="1" vertex="1">
          <mxGeometry x="40" y="470" width="60" height="30" as="geometry" />
        </mxCell>
        <mxCell id="Mavh1etGCZN7SNpF_kbl-21" value="" style="rounded=1;whiteSpace=wrap;html=1;fillColor=#b0e3e6;strokeColor=#0e8088;" parent="1" vertex="1">
          <mxGeometry x="40" y="510" width="60" height="30" as="geometry" />
        </mxCell>
        <mxCell id="Mavh1etGCZN7SNpF_kbl-22" value="" style="rounded=1;whiteSpace=wrap;html=1;fillColor=#b0e3e6;strokeColor=#0e8088;" parent="1" vertex="1">
          <mxGeometry x="40" y="550" width="60" height="30" as="geometry" />
        </mxCell>
        <mxCell id="Mavh1etGCZN7SNpF_kbl-23" value="" style="rounded=1;whiteSpace=wrap;html=1;fillColor=#b0e3e6;strokeColor=#0e8088;" parent="1" vertex="1">
          <mxGeometry x="130" y="470" width="60" height="30" as="geometry" />
        </mxCell>
        <mxCell id="Mavh1etGCZN7SNpF_kbl-24" value="" style="rounded=1;whiteSpace=wrap;html=1;fillColor=#b0e3e6;strokeColor=#0e8088;" parent="1" vertex="1">
          <mxGeometry x="130" y="510" width="60" height="30" as="geometry" />
        </mxCell>
        <mxCell id="Mavh1etGCZN7SNpF_kbl-25" value="" style="rounded=1;whiteSpace=wrap;html=1;fillColor=#b0e3e6;strokeColor=#0e8088;" parent="1" vertex="1">
          <mxGeometry x="130" y="550" width="60" height="30" as="geometry" />
        </mxCell>
        <mxCell id="Mavh1etGCZN7SNpF_kbl-26" value="" style="rounded=1;whiteSpace=wrap;html=1;fillColor=#b0e3e6;strokeColor=#0e8088;" parent="1" vertex="1">
          <mxGeometry x="220" y="470" width="60" height="30" as="geometry" />
        </mxCell>
        <mxCell id="Mavh1etGCZN7SNpF_kbl-27" value="" style="rounded=1;whiteSpace=wrap;html=1;fillColor=#b0e3e6;strokeColor=#0e8088;" parent="1" vertex="1">
          <mxGeometry x="220" y="510" width="60" height="30" as="geometry" />
        </mxCell>
        <mxCell id="Mavh1etGCZN7SNpF_kbl-28" value="" style="rounded=1;whiteSpace=wrap;html=1;fillColor=#b0e3e6;strokeColor=#0e8088;" parent="1" vertex="1">
          <mxGeometry x="220" y="550" width="60" height="30" as="geometry" />
        </mxCell>
        <mxCell id="Mavh1etGCZN7SNpF_kbl-29" value="" style="rounded=1;whiteSpace=wrap;html=1;fillColor=#b0e3e6;strokeColor=#0e8088;" parent="1" vertex="1">
          <mxGeometry x="303" y="470" width="60" height="30" as="geometry" />
        </mxCell>
        <mxCell id="Mavh1etGCZN7SNpF_kbl-30" value="" style="rounded=1;whiteSpace=wrap;html=1;fillColor=#b0e3e6;strokeColor=#0e8088;" parent="1" vertex="1">
          <mxGeometry x="303" y="510" width="60" height="30" as="geometry" />
        </mxCell>
        <mxCell id="Mavh1etGCZN7SNpF_kbl-31" value="" style="rounded=1;whiteSpace=wrap;html=1;fillColor=#b0e3e6;strokeColor=#0e8088;" parent="1" vertex="1">
          <mxGeometry x="303" y="550" width="60" height="30" as="geometry" />
        </mxCell>
        <mxCell id="Mavh1etGCZN7SNpF_kbl-32" value="" style="rounded=1;whiteSpace=wrap;html=1;fillColor=none;fontColor=#000000;strokeColor=#B09500;" parent="1" vertex="1">
          <mxGeometry x="440" y="370" width="370" height="240" as="geometry" />
        </mxCell>
        <mxCell id="Mavh1etGCZN7SNpF_kbl-33" value="" style="rounded=1;whiteSpace=wrap;html=1;fillColor=#e51400;fontColor=#ffffff;strokeColor=#B20000;" parent="1" vertex="1">
          <mxGeometry x="460" y="390" width="320" height="20" as="geometry" />
        </mxCell>
        <mxCell id="Mavh1etGCZN7SNpF_kbl-34" value="" style="rounded=1;whiteSpace=wrap;html=1;fillColor=#b0e3e6;strokeColor=#0e8088;" parent="1" vertex="1">
          <mxGeometry x="460" y="430" width="320" height="20" as="geometry" />
        </mxCell>
        <mxCell id="Mavh1etGCZN7SNpF_kbl-35" value="" style="rounded=1;whiteSpace=wrap;html=1;fillColor=#b0e3e6;strokeColor=#0e8088;" parent="1" vertex="1">
          <mxGeometry x="460" y="470" width="60" height="30" as="geometry" />
        </mxCell>
        <mxCell id="Mavh1etGCZN7SNpF_kbl-36" value="" style="rounded=1;whiteSpace=wrap;html=1;fillColor=#b0e3e6;strokeColor=#0e8088;" parent="1" vertex="1">
          <mxGeometry x="460" y="510" width="60" height="30" as="geometry" />
        </mxCell>
        <mxCell id="Mavh1etGCZN7SNpF_kbl-37" value="" style="rounded=1;whiteSpace=wrap;html=1;fillColor=#b0e3e6;strokeColor=#0e8088;" parent="1" vertex="1">
          <mxGeometry x="460" y="550" width="60" height="30" as="geometry" />
        </mxCell>
        <mxCell id="Mavh1etGCZN7SNpF_kbl-38" value="" style="rounded=1;whiteSpace=wrap;html=1;fillColor=#b0e3e6;strokeColor=#0e8088;" parent="1" vertex="1">
          <mxGeometry x="550" y="470" width="60" height="30" as="geometry" />
        </mxCell>
        <mxCell id="Mavh1etGCZN7SNpF_kbl-39" value="" style="rounded=1;whiteSpace=wrap;html=1;fillColor=#b0e3e6;strokeColor=#0e8088;" parent="1" vertex="1">
          <mxGeometry x="550" y="510" width="60" height="30" as="geometry" />
        </mxCell>
        <mxCell id="Mavh1etGCZN7SNpF_kbl-40" value="" style="rounded=1;whiteSpace=wrap;html=1;fillColor=#b0e3e6;strokeColor=#0e8088;" parent="1" vertex="1">
          <mxGeometry x="550" y="550" width="60" height="30" as="geometry" />
        </mxCell>
        <mxCell id="Mavh1etGCZN7SNpF_kbl-41" value="" style="rounded=1;whiteSpace=wrap;html=1;fillColor=#b0e3e6;strokeColor=#0e8088;" parent="1" vertex="1">
          <mxGeometry x="640" y="470" width="60" height="30" as="geometry" />
        </mxCell>
        <mxCell id="Mavh1etGCZN7SNpF_kbl-42" value="" style="rounded=1;whiteSpace=wrap;html=1;fillColor=#b0e3e6;strokeColor=#0e8088;" parent="1" vertex="1">
          <mxGeometry x="640" y="510" width="60" height="30" as="geometry" />
        </mxCell>
        <mxCell id="Mavh1etGCZN7SNpF_kbl-43" value="" style="rounded=1;whiteSpace=wrap;html=1;fillColor=#b0e3e6;strokeColor=#0e8088;" parent="1" vertex="1">
          <mxGeometry x="640" y="550" width="60" height="30" as="geometry" />
        </mxCell>
        <mxCell id="Mavh1etGCZN7SNpF_kbl-44" value="" style="rounded=1;whiteSpace=wrap;html=1;fillColor=#b0e3e6;strokeColor=#0e8088;" parent="1" vertex="1">
          <mxGeometry x="723" y="470" width="60" height="30" as="geometry" />
        </mxCell>
        <mxCell id="Mavh1etGCZN7SNpF_kbl-45" value="" style="rounded=1;whiteSpace=wrap;html=1;fillColor=#b0e3e6;strokeColor=#0e8088;" parent="1" vertex="1">
          <mxGeometry x="723" y="510" width="60" height="30" as="geometry" />
        </mxCell>
        <mxCell id="Mavh1etGCZN7SNpF_kbl-46" value="" style="rounded=1;whiteSpace=wrap;html=1;fillColor=#b0e3e6;strokeColor=#0e8088;" parent="1" vertex="1">
          <mxGeometry x="723" y="550" width="60" height="30" as="geometry" />
        </mxCell>
        <mxCell id="Mavh1etGCZN7SNpF_kbl-48" value="" style="endArrow=classic;startArrow=classic;html=1;rounded=0;entryX=0.5;entryY=0;entryDx=0;entryDy=0;fillColor=#fad7ac;strokeColor=#b46504;strokeWidth=4;exitX=0.5;exitY=1;exitDx=0;exitDy=0;" parent="1" source="Mavh1etGCZN7SNpF_kbl-4" target="Mavh1etGCZN7SNpF_kbl-41" edge="1">
          <mxGeometry width="50" height="50" relative="1" as="geometry">
            <mxPoint x="720" y="130" as="sourcePoint" />
            <mxPoint x="450" y="300" as="targetPoint" />
          </mxGeometry>
        </mxCell>
        <mxCell id="Mavh1etGCZN7SNpF_kbl-49" value="" style="endArrow=classic;startArrow=classic;html=1;rounded=0;entryX=0.5;entryY=0;entryDx=0;entryDy=0;exitX=0.5;exitY=1;exitDx=0;exitDy=0;fillColor=#fad7ac;strokeColor=#b46504;strokeWidth=4;" parent="1" source="Mavh1etGCZN7SNpF_kbl-5" target="Mavh1etGCZN7SNpF_kbl-42" edge="1">
          <mxGeometry width="50" height="50" relative="1" as="geometry">
            <mxPoint x="280" y="180" as="sourcePoint" />
            <mxPoint x="660" y="510" as="targetPoint" />
          </mxGeometry>
        </mxCell>
        <mxCell id="Mavh1etGCZN7SNpF_kbl-50" value="" style="endArrow=classic;startArrow=classic;html=1;rounded=0;entryX=0.5;entryY=0;entryDx=0;entryDy=0;exitX=0.5;exitY=1;exitDx=0;exitDy=0;fillColor=#fad7ac;strokeColor=#b46504;strokeWidth=4;" parent="1" edge="1">
          <mxGeometry width="50" height="50" relative="1" as="geometry">
            <mxPoint x="290" y="220" as="sourcePoint" />
            <mxPoint x="670" y="550" as="targetPoint" />
          </mxGeometry>
        </mxCell>
        <mxCell id="Mavh1etGCZN7SNpF_kbl-51" value="" style="endArrow=classic;startArrow=classic;html=1;rounded=0;entryX=0.5;entryY=0;entryDx=0;entryDy=0;exitX=0.5;exitY=1;exitDx=0;exitDy=0;fillColor=#d0cee2;strokeColor=#56517e;strokeWidth=3;dashed=1;" parent="1" edge="1">
          <mxGeometry width="50" height="50" relative="1" as="geometry">
            <mxPoint x="380" y="140" as="sourcePoint" />
            <mxPoint x="760" y="470" as="targetPoint" />
          </mxGeometry>
        </mxCell>
        <mxCell id="Mavh1etGCZN7SNpF_kbl-52" value="" style="endArrow=classic;startArrow=classic;html=1;rounded=0;entryX=0.5;entryY=0;entryDx=0;entryDy=0;exitX=0.5;exitY=1;exitDx=0;exitDy=0;fillColor=#d0cee2;strokeColor=#56517e;strokeWidth=3;dashed=1;" parent="1" edge="1">
          <mxGeometry width="50" height="50" relative="1" as="geometry">
            <mxPoint x="380" y="180" as="sourcePoint" />
            <mxPoint x="760" y="510" as="targetPoint" />
          </mxGeometry>
        </mxCell>
        <mxCell id="Mavh1etGCZN7SNpF_kbl-53" value="" style="endArrow=classic;startArrow=classic;html=1;rounded=0;entryX=0.5;entryY=0;entryDx=0;entryDy=0;exitX=0.5;exitY=1;exitDx=0;exitDy=0;fillColor=#d0cee2;strokeColor=#56517e;strokeWidth=3;dashed=1;" parent="1" edge="1">
          <mxGeometry width="50" height="50" relative="1" as="geometry">
            <mxPoint x="390" y="220" as="sourcePoint" />
            <mxPoint x="770" y="550" as="targetPoint" />
          </mxGeometry>
        </mxCell>
        <mxCell id="Mavh1etGCZN7SNpF_kbl-54" value="" style="endArrow=classic;startArrow=classic;html=1;rounded=0;entryX=0.5;entryY=0;entryDx=0;entryDy=0;exitX=0.5;exitY=1;exitDx=0;exitDy=0;fillColor=#fad7ac;strokeColor=#b46504;strokeWidth=4;" parent="1" target="Mavh1etGCZN7SNpF_kbl-20" edge="1">
          <mxGeometry width="50" height="50" relative="1" as="geometry">
            <mxPoint x="460" y="140" as="sourcePoint" />
            <mxPoint x="840" y="470" as="targetPoint" />
          </mxGeometry>
        </mxCell>
        <mxCell id="Mavh1etGCZN7SNpF_kbl-55" value="" style="endArrow=classic;startArrow=classic;html=1;rounded=0;entryX=0.5;entryY=0;entryDx=0;entryDy=0;exitX=0.5;exitY=1;exitDx=0;exitDy=0;fillColor=#fad7ac;strokeColor=#b46504;strokeWidth=4;" parent="1" edge="1">
          <mxGeometry width="50" height="50" relative="1" as="geometry">
            <mxPoint x="460" y="180" as="sourcePoint" />
            <mxPoint x="70" y="510" as="targetPoint" />
          </mxGeometry>
        </mxCell>
        <mxCell id="Mavh1etGCZN7SNpF_kbl-56" value="" style="endArrow=classic;startArrow=classic;html=1;rounded=0;entryX=0.5;entryY=0;entryDx=0;entryDy=0;exitX=0.5;exitY=1;exitDx=0;exitDy=0;fillColor=#fad7ac;strokeColor=#b46504;strokeWidth=4;" parent="1" edge="1">
          <mxGeometry width="50" height="50" relative="1" as="geometry">
            <mxPoint x="460" y="220" as="sourcePoint" />
            <mxPoint x="70" y="550" as="targetPoint" />
          </mxGeometry>
        </mxCell>
        <mxCell id="Mavh1etGCZN7SNpF_kbl-57" value="" style="endArrow=classic;startArrow=classic;html=1;rounded=0;entryX=0.75;entryY=0;entryDx=0;entryDy=0;exitX=0.75;exitY=1;exitDx=0;exitDy=0;fillColor=#d0cee2;strokeColor=#56517e;strokeWidth=3;dashed=1;" parent="1" source="Mavh1etGCZN7SNpF_kbl-13" target="Mavh1etGCZN7SNpF_kbl-23" edge="1">
          <mxGeometry width="50" height="50" relative="1" as="geometry">
            <mxPoint x="540" y="140" as="sourcePoint" />
            <mxPoint x="920" y="470" as="targetPoint" />
          </mxGeometry>
        </mxCell>
        <mxCell id="Mavh1etGCZN7SNpF_kbl-58" value="" style="endArrow=classic;startArrow=classic;html=1;rounded=0;entryX=0.75;entryY=0;entryDx=0;entryDy=0;exitX=0.75;exitY=1;exitDx=0;exitDy=0;fillColor=#d0cee2;strokeColor=#56517e;strokeWidth=3;dashed=1;" parent="1" edge="1">
          <mxGeometry width="50" height="50" relative="1" as="geometry">
            <mxPoint x="563" y="180" as="sourcePoint" />
            <mxPoint x="170" y="510" as="targetPoint" />
          </mxGeometry>
        </mxCell>
        <mxCell id="Mavh1etGCZN7SNpF_kbl-59" value="" style="endArrow=classic;startArrow=classic;html=1;rounded=0;entryX=0.75;entryY=0;entryDx=0;entryDy=0;exitX=0.75;exitY=1;exitDx=0;exitDy=0;fillColor=#d0cee2;strokeColor=#56517e;strokeWidth=3;dashed=1;" parent="1" edge="1">
          <mxGeometry width="50" height="50" relative="1" as="geometry">
            <mxPoint x="563" y="220" as="sourcePoint" />
            <mxPoint x="170" y="550" as="targetPoint" />
          </mxGeometry>
        </mxCell>
        <mxCell id="Mavh1etGCZN7SNpF_kbl-60" value="" style="endArrow=classic;startArrow=classic;html=1;rounded=0;fillColor=#fad7ac;strokeColor=#b46504;strokeWidth=4;" parent="1" edge="1">
          <mxGeometry width="50" height="50" relative="1" as="geometry">
            <mxPoint x="460" y="484" as="sourcePoint" />
            <mxPoint x="280" y="484.28999999999996" as="targetPoint" />
          </mxGeometry>
        </mxCell>
        <mxCell id="Mavh1etGCZN7SNpF_kbl-61" value="" style="endArrow=classic;startArrow=classic;html=1;rounded=0;fillColor=#fad7ac;strokeColor=#b46504;strokeWidth=4;" parent="1" edge="1">
          <mxGeometry width="50" height="50" relative="1" as="geometry">
            <mxPoint x="460" y="524.52" as="sourcePoint" />
            <mxPoint x="280" y="524.81" as="targetPoint" />
          </mxGeometry>
        </mxCell>
        <mxCell id="Mavh1etGCZN7SNpF_kbl-62" value="" style="endArrow=classic;startArrow=classic;html=1;rounded=0;fillColor=#fad7ac;strokeColor=#b46504;strokeWidth=4;" parent="1" edge="1">
          <mxGeometry width="50" height="50" relative="1" as="geometry">
            <mxPoint x="460" y="564.52" as="sourcePoint" />
            <mxPoint x="280" y="564.81" as="targetPoint" />
          </mxGeometry>
        </mxCell>
        <mxCell id="Mavh1etGCZN7SNpF_kbl-63" value="" style="endArrow=classic;startArrow=classic;html=1;rounded=0;fillColor=#d0cee2;strokeColor=#56517e;strokeWidth=3;dashed=1;entryX=0;entryY=0.75;entryDx=0;entryDy=0;exitX=1;exitY=0.75;exitDx=0;exitDy=0;" parent="1" source="Mavh1etGCZN7SNpF_kbl-29" target="Mavh1etGCZN7SNpF_kbl-38" edge="1">
          <mxGeometry width="50" height="50" relative="1" as="geometry">
            <mxPoint x="370" y="493" as="sourcePoint" />
            <mxPoint x="463" y="489.52" as="targetPoint" />
          </mxGeometry>
        </mxCell>
        <mxCell id="Mavh1etGCZN7SNpF_kbl-64" value="" style="endArrow=classic;startArrow=classic;html=1;rounded=0;fillColor=#d0cee2;strokeColor=#56517e;strokeWidth=3;dashed=1;entryX=0;entryY=0.75;entryDx=0;entryDy=0;exitX=1;exitY=0.75;exitDx=0;exitDy=0;" parent="1" edge="1">
          <mxGeometry width="50" height="50" relative="1" as="geometry">
            <mxPoint x="363" y="530" as="sourcePoint" />
            <mxPoint x="550" y="530" as="targetPoint" />
          </mxGeometry>
        </mxCell>
        <mxCell id="Mavh1etGCZN7SNpF_kbl-65" value="" style="endArrow=classic;startArrow=classic;html=1;rounded=0;fillColor=#d0cee2;strokeColor=#56517e;strokeWidth=3;dashed=1;entryX=0;entryY=0.75;entryDx=0;entryDy=0;exitX=1;exitY=0.75;exitDx=0;exitDy=0;" parent="1" edge="1">
          <mxGeometry width="50" height="50" relative="1" as="geometry">
            <mxPoint x="363" y="570" as="sourcePoint" />
            <mxPoint x="550" y="570" as="targetPoint" />
          </mxGeometry>
        </mxCell>
        <mxCell id="Mavh1etGCZN7SNpF_kbl-66" value="msql0" style="text;html=1;align=center;verticalAlign=middle;whiteSpace=wrap;rounded=0;" parent="1" vertex="1">
          <mxGeometry x="265" y="115" width="50" height="20" as="geometry" />
        </mxCell>
        <mxCell id="Mavh1etGCZN7SNpF_kbl-67" value="msql1" style="text;html=1;align=center;verticalAlign=middle;whiteSpace=wrap;rounded=0;" parent="1" vertex="1">
          <mxGeometry x="265" y="155" width="50" height="20" as="geometry" />
        </mxCell>
        <mxCell id="Mavh1etGCZN7SNpF_kbl-69" value="msql2" style="text;html=1;align=center;verticalAlign=middle;whiteSpace=wrap;rounded=0;" parent="1" vertex="1">
          <mxGeometry x="265" y="195" width="50" height="20" as="geometry" />
        </mxCell>
        <mxCell id="Mavh1etGCZN7SNpF_kbl-70" value="msql3" style="text;html=1;align=center;verticalAlign=middle;whiteSpace=wrap;rounded=0;" parent="1" vertex="1">
          <mxGeometry x="353.5" y="115" width="50" height="20" as="geometry" />
        </mxCell>
        <mxCell id="Mavh1etGCZN7SNpF_kbl-71" value="msql4" style="text;html=1;align=center;verticalAlign=middle;whiteSpace=wrap;rounded=0;" parent="1" vertex="1">
          <mxGeometry x="355" y="155" width="50" height="20" as="geometry" />
        </mxCell>
        <mxCell id="Mavh1etGCZN7SNpF_kbl-72" value="msql5" style="text;html=1;align=center;verticalAlign=middle;whiteSpace=wrap;rounded=0;" parent="1" vertex="1">
          <mxGeometry x="355" y="195" width="50" height="20" as="geometry" />
        </mxCell>
        <mxCell id="Mavh1etGCZN7SNpF_kbl-73" value="msql6" style="text;html=1;align=center;verticalAlign=middle;whiteSpace=wrap;rounded=0;" parent="1" vertex="1">
          <mxGeometry x="445" y="115" width="50" height="20" as="geometry" />
        </mxCell>
        <mxCell id="Mavh1etGCZN7SNpF_kbl-74" value="msql9" style="text;html=1;align=center;verticalAlign=middle;whiteSpace=wrap;rounded=0;" parent="1" vertex="1">
          <mxGeometry x="528" y="115" width="50" height="20" as="geometry" />
        </mxCell>
        <mxCell id="Mavh1etGCZN7SNpF_kbl-75" value="msql7" style="text;html=1;align=center;verticalAlign=middle;whiteSpace=wrap;rounded=0;" parent="1" vertex="1">
          <mxGeometry x="445" y="155" width="50" height="20" as="geometry" />
        </mxCell>
        <mxCell id="Mavh1etGCZN7SNpF_kbl-76" value="msql10" style="text;html=1;align=center;verticalAlign=middle;whiteSpace=wrap;rounded=0;" parent="1" vertex="1">
          <mxGeometry x="530" y="155" width="50" height="20" as="geometry" />
        </mxCell>
        <mxCell id="Mavh1etGCZN7SNpF_kbl-77" value="msql8" style="text;html=1;align=center;verticalAlign=middle;whiteSpace=wrap;rounded=0;" parent="1" vertex="1">
          <mxGeometry x="445" y="195" width="50" height="20" as="geometry" />
        </mxCell>
        <mxCell id="Mavh1etGCZN7SNpF_kbl-78" value="msql11" style="text;html=1;align=center;verticalAlign=middle;whiteSpace=wrap;rounded=0;" parent="1" vertex="1">
          <mxGeometry x="528" y="195" width="50" height="20" as="geometry" />
        </mxCell>
        <mxCell id="Mavh1etGCZN7SNpF_kbl-79" value="msql-connectivity-service" style="text;html=1;align=center;verticalAlign=middle;whiteSpace=wrap;rounded=0;" parent="1" vertex="1">
          <mxGeometry x="320" y="70" width="220" height="20" as="geometry" />
        </mxCell>
        <mxCell id="Mavh1etGCZN7SNpF_kbl-80" value="PCF" style="text;html=1;align=center;verticalAlign=middle;whiteSpace=wrap;rounded=0;" parent="1" vertex="1">
          <mxGeometry x="395" y="30" width="50" height="20" as="geometry" />
        </mxCell>
        <mxCell id="Mavh1etGCZN7SNpF_kbl-81" value="msql0" style="text;html=1;align=center;verticalAlign=middle;whiteSpace=wrap;rounded=0;" parent="1" vertex="1">
          <mxGeometry x="465" y="475" width="50" height="20" as="geometry" />
        </mxCell>
        <mxCell id="Mavh1etGCZN7SNpF_kbl-82" value="msql1" style="text;html=1;align=center;verticalAlign=middle;whiteSpace=wrap;rounded=0;" parent="1" vertex="1">
          <mxGeometry x="465" y="515" width="50" height="20" as="geometry" />
        </mxCell>
        <mxCell id="Mavh1etGCZN7SNpF_kbl-83" value="msql2" style="text;html=1;align=center;verticalAlign=middle;whiteSpace=wrap;rounded=0;" parent="1" vertex="1">
          <mxGeometry x="465" y="555" width="50" height="20" as="geometry" />
        </mxCell>
        <mxCell id="Mavh1etGCZN7SNpF_kbl-84" value="msql3" style="text;html=1;align=center;verticalAlign=middle;whiteSpace=wrap;rounded=0;" parent="1" vertex="1">
          <mxGeometry x="553.5" y="475" width="50" height="20" as="geometry" />
        </mxCell>
        <mxCell id="Mavh1etGCZN7SNpF_kbl-85" value="msql4" style="text;html=1;align=center;verticalAlign=middle;whiteSpace=wrap;rounded=0;" parent="1" vertex="1">
          <mxGeometry x="555" y="515" width="50" height="20" as="geometry" />
        </mxCell>
        <mxCell id="Mavh1etGCZN7SNpF_kbl-86" value="msql5" style="text;html=1;align=center;verticalAlign=middle;whiteSpace=wrap;rounded=0;" parent="1" vertex="1">
          <mxGeometry x="555" y="555" width="50" height="20" as="geometry" />
        </mxCell>
        <mxCell id="Mavh1etGCZN7SNpF_kbl-87" value="msql6" style="text;html=1;align=center;verticalAlign=middle;whiteSpace=wrap;rounded=0;" parent="1" vertex="1">
          <mxGeometry x="645" y="475" width="50" height="20" as="geometry" />
        </mxCell>
        <mxCell id="Mavh1etGCZN7SNpF_kbl-88" value="msql9" style="text;html=1;align=center;verticalAlign=middle;whiteSpace=wrap;rounded=0;" parent="1" vertex="1">
          <mxGeometry x="728" y="475" width="50" height="20" as="geometry" />
        </mxCell>
        <mxCell id="Mavh1etGCZN7SNpF_kbl-89" value="msql7" style="text;html=1;align=center;verticalAlign=middle;whiteSpace=wrap;rounded=0;" parent="1" vertex="1">
          <mxGeometry x="645" y="515" width="50" height="20" as="geometry" />
        </mxCell>
        <mxCell id="Mavh1etGCZN7SNpF_kbl-90" value="msql10" style="text;html=1;align=center;verticalAlign=middle;whiteSpace=wrap;rounded=0;" parent="1" vertex="1">
          <mxGeometry x="730" y="515" width="50" height="20" as="geometry" />
        </mxCell>
        <mxCell id="Mavh1etGCZN7SNpF_kbl-91" value="msql8" style="text;html=1;align=center;verticalAlign=middle;whiteSpace=wrap;rounded=0;" parent="1" vertex="1">
          <mxGeometry x="645" y="555" width="50" height="20" as="geometry" />
        </mxCell>
        <mxCell id="Mavh1etGCZN7SNpF_kbl-92" value="msql11" style="text;html=1;align=center;verticalAlign=middle;whiteSpace=wrap;rounded=0;" parent="1" vertex="1">
          <mxGeometry x="728" y="555" width="50" height="20" as="geometry" />
        </mxCell>
        <mxCell id="Mavh1etGCZN7SNpF_kbl-93" value="msql-connectivity-service" style="text;html=1;align=center;verticalAlign=middle;whiteSpace=wrap;rounded=0;" parent="1" vertex="1">
          <mxGeometry x="520" y="430" width="220" height="20" as="geometry" />
        </mxCell>
        <mxCell id="Mavh1etGCZN7SNpF_kbl-94" value="PCF" style="text;html=1;align=center;verticalAlign=middle;whiteSpace=wrap;rounded=0;" parent="1" vertex="1">
          <mxGeometry x="595" y="390" width="50" height="20" as="geometry" />
        </mxCell>
        <mxCell id="Mavh1etGCZN7SNpF_kbl-95" value="msql0" style="text;html=1;align=center;verticalAlign=middle;whiteSpace=wrap;rounded=0;" parent="1" vertex="1">
          <mxGeometry x="48" y="475" width="50" height="20" as="geometry" />
        </mxCell>
        <mxCell id="Mavh1etGCZN7SNpF_kbl-96" value="msql1" style="text;html=1;align=center;verticalAlign=middle;whiteSpace=wrap;rounded=0;" parent="1" vertex="1">
          <mxGeometry x="48" y="515" width="50" height="20" as="geometry" />
        </mxCell>
        <mxCell id="Mavh1etGCZN7SNpF_kbl-97" value="msql2" style="text;html=1;align=center;verticalAlign=middle;whiteSpace=wrap;rounded=0;" parent="1" vertex="1">
          <mxGeometry x="48" y="555" width="50" height="20" as="geometry" />
        </mxCell>
        <mxCell id="Mavh1etGCZN7SNpF_kbl-98" value="msql3" style="text;html=1;align=center;verticalAlign=middle;whiteSpace=wrap;rounded=0;" parent="1" vertex="1">
          <mxGeometry x="136.5" y="475" width="50" height="20" as="geometry" />
        </mxCell>
        <mxCell id="Mavh1etGCZN7SNpF_kbl-99" value="msql4" style="text;html=1;align=center;verticalAlign=middle;whiteSpace=wrap;rounded=0;" parent="1" vertex="1">
          <mxGeometry x="138" y="515" width="50" height="20" as="geometry" />
        </mxCell>
        <mxCell id="Mavh1etGCZN7SNpF_kbl-100" value="msql5" style="text;html=1;align=center;verticalAlign=middle;whiteSpace=wrap;rounded=0;" parent="1" vertex="1">
          <mxGeometry x="138" y="555" width="50" height="20" as="geometry" />
        </mxCell>
        <mxCell id="Mavh1etGCZN7SNpF_kbl-101" value="msql6" style="text;html=1;align=center;verticalAlign=middle;whiteSpace=wrap;rounded=0;" parent="1" vertex="1">
          <mxGeometry x="228" y="475" width="50" height="20" as="geometry" />
        </mxCell>
        <mxCell id="Mavh1etGCZN7SNpF_kbl-102" value="msql9" style="text;html=1;align=center;verticalAlign=middle;whiteSpace=wrap;rounded=0;" parent="1" vertex="1">
          <mxGeometry x="311" y="475" width="50" height="20" as="geometry" />
        </mxCell>
        <mxCell id="Mavh1etGCZN7SNpF_kbl-103" value="msql7" style="text;html=1;align=center;verticalAlign=middle;whiteSpace=wrap;rounded=0;" parent="1" vertex="1">
          <mxGeometry x="228" y="515" width="50" height="20" as="geometry" />
        </mxCell>
        <mxCell id="Mavh1etGCZN7SNpF_kbl-104" value="msql10" style="text;html=1;align=center;verticalAlign=middle;whiteSpace=wrap;rounded=0;" parent="1" vertex="1">
          <mxGeometry x="313" y="515" width="50" height="20" as="geometry" />
        </mxCell>
        <mxCell id="Mavh1etGCZN7SNpF_kbl-105" value="msql8" style="text;html=1;align=center;verticalAlign=middle;whiteSpace=wrap;rounded=0;" parent="1" vertex="1">
          <mxGeometry x="228" y="555" width="50" height="20" as="geometry" />
        </mxCell>
        <mxCell id="Mavh1etGCZN7SNpF_kbl-106" value="msql11" style="text;html=1;align=center;verticalAlign=middle;whiteSpace=wrap;rounded=0;" parent="1" vertex="1">
          <mxGeometry x="311" y="555" width="50" height="20" as="geometry" />
        </mxCell>
        <mxCell id="Mavh1etGCZN7SNpF_kbl-107" value="msql-connectivity-service" style="text;html=1;align=center;verticalAlign=middle;whiteSpace=wrap;rounded=0;" parent="1" vertex="1">
          <mxGeometry x="103" y="430" width="220" height="20" as="geometry" />
        </mxCell>
        <mxCell id="Mavh1etGCZN7SNpF_kbl-108" value="PCF" style="text;html=1;align=center;verticalAlign=middle;whiteSpace=wrap;rounded=0;" parent="1" vertex="1">
          <mxGeometry x="178" y="390" width="50" height="20" as="geometry" />
        </mxCell>
        <mxCell id="uc37APh-awS5iGvVGFVo-1" value="site1" style="text;html=1;align=center;verticalAlign=middle;whiteSpace=wrap;rounded=0;" parent="1" vertex="1">
          <mxGeometry x="260" y="10" width="50" height="20" as="geometry" />
        </mxCell>
        <mxCell id="uc37APh-awS5iGvVGFVo-2" value="site2" style="text;html=1;align=center;verticalAlign=middle;whiteSpace=wrap;rounded=0;" parent="1" vertex="1">
          <mxGeometry x="40" y="370" width="50" height="20" as="geometry" />
        </mxCell>
        <mxCell id="uc37APh-awS5iGvVGFVo-3" value="site3" style="text;html=1;align=center;verticalAlign=middle;whiteSpace=wrap;rounded=0;" parent="1" vertex="1">
          <mxGeometry x="465" y="370" width="50" height="20" as="geometry" />
        </mxCell>
        <mxCell id="iQ4g5-kk1la3dPBKRfUD-1" value="" style="rounded=1;whiteSpace=wrap;html=1;fillColor=none;fontColor=#000000;strokeColor=#B09500;" vertex="1" parent="1">
          <mxGeometry x="240" y="1370" width="370" height="240" as="geometry" />
        </mxCell>
        <mxCell id="iQ4g5-kk1la3dPBKRfUD-2" value="" style="rounded=1;whiteSpace=wrap;html=1;fillColor=#e51400;fontColor=#ffffff;strokeColor=#B20000;" vertex="1" parent="1">
          <mxGeometry x="260" y="1390" width="320" height="20" as="geometry" />
        </mxCell>
        <mxCell id="iQ4g5-kk1la3dPBKRfUD-3" value="" style="rounded=1;whiteSpace=wrap;html=1;fillColor=#b0e3e6;strokeColor=#0e8088;" vertex="1" parent="1">
          <mxGeometry x="260" y="1430" width="320" height="20" as="geometry" />
        </mxCell>
        <object label="" id="iQ4g5-kk1la3dPBKRfUD-4">
          <mxCell style="rounded=1;whiteSpace=wrap;html=1;fillColor=#b0e3e6;strokeColor=#0e8088;" vertex="1" parent="1">
            <mxGeometry x="260" y="1470" width="60" height="30" as="geometry" />
          </mxCell>
        </object>
        <mxCell id="iQ4g5-kk1la3dPBKRfUD-5" value="" style="rounded=1;whiteSpace=wrap;html=1;fillColor=#b0e3e6;strokeColor=#0e8088;" vertex="1" parent="1">
          <mxGeometry x="260" y="1510" width="60" height="30" as="geometry" />
        </mxCell>
        <mxCell id="iQ4g5-kk1la3dPBKRfUD-6" value="" style="rounded=1;whiteSpace=wrap;html=1;fillColor=#b0e3e6;strokeColor=#0e8088;" vertex="1" parent="1">
          <mxGeometry x="260" y="1550" width="60" height="30" as="geometry" />
        </mxCell>
        <mxCell id="iQ4g5-kk1la3dPBKRfUD-7" value="" style="rounded=1;whiteSpace=wrap;html=1;fillColor=#b0e3e6;strokeColor=#0e8088;" vertex="1" parent="1">
          <mxGeometry x="350" y="1470" width="60" height="30" as="geometry" />
        </mxCell>
        <mxCell id="iQ4g5-kk1la3dPBKRfUD-8" value="" style="rounded=1;whiteSpace=wrap;html=1;fillColor=#b0e3e6;strokeColor=#0e8088;" vertex="1" parent="1">
          <mxGeometry x="350" y="1510" width="60" height="30" as="geometry" />
        </mxCell>
        <mxCell id="iQ4g5-kk1la3dPBKRfUD-9" value="" style="rounded=1;whiteSpace=wrap;html=1;fillColor=#b0e3e6;strokeColor=#0e8088;" vertex="1" parent="1">
          <mxGeometry x="350" y="1550" width="60" height="30" as="geometry" />
        </mxCell>
        <mxCell id="iQ4g5-kk1la3dPBKRfUD-10" value="" style="rounded=1;whiteSpace=wrap;html=1;fillColor=#b0e3e6;strokeColor=#0e8088;" vertex="1" parent="1">
          <mxGeometry x="440" y="1470" width="60" height="30" as="geometry" />
        </mxCell>
        <mxCell id="iQ4g5-kk1la3dPBKRfUD-11" value="" style="rounded=1;whiteSpace=wrap;html=1;fillColor=#b0e3e6;strokeColor=#0e8088;" vertex="1" parent="1">
          <mxGeometry x="440" y="1510" width="60" height="30" as="geometry" />
        </mxCell>
        <mxCell id="iQ4g5-kk1la3dPBKRfUD-12" value="" style="rounded=1;whiteSpace=wrap;html=1;fillColor=#b0e3e6;strokeColor=#0e8088;" vertex="1" parent="1">
          <mxGeometry x="440" y="1550" width="60" height="30" as="geometry" />
        </mxCell>
        <mxCell id="iQ4g5-kk1la3dPBKRfUD-13" value="" style="rounded=1;whiteSpace=wrap;html=1;fillColor=#b0e3e6;strokeColor=#0e8088;" vertex="1" parent="1">
          <mxGeometry x="523" y="1470" width="60" height="30" as="geometry" />
        </mxCell>
        <mxCell id="iQ4g5-kk1la3dPBKRfUD-14" value="" style="rounded=1;whiteSpace=wrap;html=1;fillColor=#b0e3e6;strokeColor=#0e8088;" vertex="1" parent="1">
          <mxGeometry x="523" y="1510" width="60" height="30" as="geometry" />
        </mxCell>
        <mxCell id="iQ4g5-kk1la3dPBKRfUD-15" value="" style="rounded=1;whiteSpace=wrap;html=1;fillColor=#b0e3e6;strokeColor=#0e8088;" vertex="1" parent="1">
          <mxGeometry x="523" y="1550" width="60" height="30" as="geometry" />
        </mxCell>
        <mxCell id="iQ4g5-kk1la3dPBKRfUD-16" value="" style="rounded=1;whiteSpace=wrap;html=1;fillColor=none;fontColor=#000000;strokeColor=#B09500;" vertex="1" parent="1">
          <mxGeometry x="20" y="1730" width="370" height="240" as="geometry" />
        </mxCell>
        <mxCell id="iQ4g5-kk1la3dPBKRfUD-17" value="" style="rounded=1;whiteSpace=wrap;html=1;fillColor=#e51400;fontColor=#ffffff;strokeColor=#B20000;" vertex="1" parent="1">
          <mxGeometry x="40" y="1750" width="320" height="20" as="geometry" />
        </mxCell>
        <mxCell id="iQ4g5-kk1la3dPBKRfUD-18" value="" style="rounded=1;whiteSpace=wrap;html=1;fillColor=#b0e3e6;strokeColor=#0e8088;" vertex="1" parent="1">
          <mxGeometry x="40" y="1790" width="320" height="20" as="geometry" />
        </mxCell>
        <mxCell id="iQ4g5-kk1la3dPBKRfUD-19" value="" style="rounded=1;whiteSpace=wrap;html=1;fillColor=#b0e3e6;strokeColor=#0e8088;" vertex="1" parent="1">
          <mxGeometry x="40" y="1830" width="60" height="30" as="geometry" />
        </mxCell>
        <mxCell id="iQ4g5-kk1la3dPBKRfUD-20" value="" style="rounded=1;whiteSpace=wrap;html=1;fillColor=#b0e3e6;strokeColor=#0e8088;" vertex="1" parent="1">
          <mxGeometry x="40" y="1870" width="60" height="30" as="geometry" />
        </mxCell>
        <mxCell id="iQ4g5-kk1la3dPBKRfUD-21" value="" style="rounded=1;whiteSpace=wrap;html=1;fillColor=#b0e3e6;strokeColor=#0e8088;" vertex="1" parent="1">
          <mxGeometry x="40" y="1910" width="60" height="30" as="geometry" />
        </mxCell>
        <mxCell id="iQ4g5-kk1la3dPBKRfUD-22" value="" style="rounded=1;whiteSpace=wrap;html=1;fillColor=#b0e3e6;strokeColor=#0e8088;" vertex="1" parent="1">
          <mxGeometry x="130" y="1830" width="60" height="30" as="geometry" />
        </mxCell>
        <mxCell id="iQ4g5-kk1la3dPBKRfUD-23" value="" style="rounded=1;whiteSpace=wrap;html=1;fillColor=#b0e3e6;strokeColor=#0e8088;" vertex="1" parent="1">
          <mxGeometry x="130" y="1870" width="60" height="30" as="geometry" />
        </mxCell>
        <mxCell id="iQ4g5-kk1la3dPBKRfUD-24" value="" style="rounded=1;whiteSpace=wrap;html=1;fillColor=#b0e3e6;strokeColor=#0e8088;" vertex="1" parent="1">
          <mxGeometry x="130" y="1910" width="60" height="30" as="geometry" />
        </mxCell>
        <mxCell id="iQ4g5-kk1la3dPBKRfUD-25" value="" style="rounded=1;whiteSpace=wrap;html=1;fillColor=#b0e3e6;strokeColor=#0e8088;" vertex="1" parent="1">
          <mxGeometry x="220" y="1830" width="60" height="30" as="geometry" />
        </mxCell>
        <mxCell id="iQ4g5-kk1la3dPBKRfUD-26" value="" style="rounded=1;whiteSpace=wrap;html=1;fillColor=#b0e3e6;strokeColor=#0e8088;" vertex="1" parent="1">
          <mxGeometry x="220" y="1870" width="60" height="30" as="geometry" />
        </mxCell>
        <mxCell id="iQ4g5-kk1la3dPBKRfUD-27" value="" style="rounded=1;whiteSpace=wrap;html=1;fillColor=#b0e3e6;strokeColor=#0e8088;" vertex="1" parent="1">
          <mxGeometry x="220" y="1910" width="60" height="30" as="geometry" />
        </mxCell>
        <mxCell id="iQ4g5-kk1la3dPBKRfUD-28" value="" style="rounded=1;whiteSpace=wrap;html=1;fillColor=#b0e3e6;strokeColor=#0e8088;" vertex="1" parent="1">
          <mxGeometry x="303" y="1830" width="60" height="30" as="geometry" />
        </mxCell>
        <mxCell id="iQ4g5-kk1la3dPBKRfUD-29" value="" style="rounded=1;whiteSpace=wrap;html=1;fillColor=#b0e3e6;strokeColor=#0e8088;" vertex="1" parent="1">
          <mxGeometry x="303" y="1870" width="60" height="30" as="geometry" />
        </mxCell>
        <mxCell id="iQ4g5-kk1la3dPBKRfUD-30" value="" style="rounded=1;whiteSpace=wrap;html=1;fillColor=#b0e3e6;strokeColor=#0e8088;" vertex="1" parent="1">
          <mxGeometry x="303" y="1910" width="60" height="30" as="geometry" />
        </mxCell>
        <mxCell id="iQ4g5-kk1la3dPBKRfUD-31" value="" style="rounded=1;whiteSpace=wrap;html=1;fillColor=none;fontColor=#000000;strokeColor=#B09500;" vertex="1" parent="1">
          <mxGeometry x="440" y="1730" width="370" height="240" as="geometry" />
        </mxCell>
        <mxCell id="iQ4g5-kk1la3dPBKRfUD-32" value="" style="rounded=1;whiteSpace=wrap;html=1;fillColor=#e51400;fontColor=#ffffff;strokeColor=#B20000;" vertex="1" parent="1">
          <mxGeometry x="460" y="1750" width="320" height="20" as="geometry" />
        </mxCell>
        <mxCell id="iQ4g5-kk1la3dPBKRfUD-33" value="" style="rounded=1;whiteSpace=wrap;html=1;fillColor=#b0e3e6;strokeColor=#0e8088;" vertex="1" parent="1">
          <mxGeometry x="460" y="1790" width="320" height="20" as="geometry" />
        </mxCell>
        <mxCell id="iQ4g5-kk1la3dPBKRfUD-34" value="" style="rounded=1;whiteSpace=wrap;html=1;fillColor=#b0e3e6;strokeColor=#0e8088;" vertex="1" parent="1">
          <mxGeometry x="460" y="1830" width="60" height="30" as="geometry" />
        </mxCell>
        <mxCell id="iQ4g5-kk1la3dPBKRfUD-35" value="" style="rounded=1;whiteSpace=wrap;html=1;fillColor=#b0e3e6;strokeColor=#0e8088;" vertex="1" parent="1">
          <mxGeometry x="460" y="1870" width="60" height="30" as="geometry" />
        </mxCell>
        <mxCell id="iQ4g5-kk1la3dPBKRfUD-36" value="" style="rounded=1;whiteSpace=wrap;html=1;fillColor=#b0e3e6;strokeColor=#0e8088;" vertex="1" parent="1">
          <mxGeometry x="460" y="1910" width="60" height="30" as="geometry" />
        </mxCell>
        <mxCell id="iQ4g5-kk1la3dPBKRfUD-37" value="" style="rounded=1;whiteSpace=wrap;html=1;fillColor=#b0e3e6;strokeColor=#0e8088;" vertex="1" parent="1">
          <mxGeometry x="550" y="1830" width="60" height="30" as="geometry" />
        </mxCell>
        <mxCell id="iQ4g5-kk1la3dPBKRfUD-38" value="" style="rounded=1;whiteSpace=wrap;html=1;fillColor=#b0e3e6;strokeColor=#0e8088;" vertex="1" parent="1">
          <mxGeometry x="550" y="1870" width="60" height="30" as="geometry" />
        </mxCell>
        <mxCell id="iQ4g5-kk1la3dPBKRfUD-39" value="" style="rounded=1;whiteSpace=wrap;html=1;fillColor=#b0e3e6;strokeColor=#0e8088;" vertex="1" parent="1">
          <mxGeometry x="550" y="1910" width="60" height="30" as="geometry" />
        </mxCell>
        <mxCell id="iQ4g5-kk1la3dPBKRfUD-40" value="" style="rounded=1;whiteSpace=wrap;html=1;fillColor=#b0e3e6;strokeColor=#0e8088;" vertex="1" parent="1">
          <mxGeometry x="640" y="1830" width="60" height="30" as="geometry" />
        </mxCell>
        <mxCell id="iQ4g5-kk1la3dPBKRfUD-41" value="" style="rounded=1;whiteSpace=wrap;html=1;fillColor=#b0e3e6;strokeColor=#0e8088;" vertex="1" parent="1">
          <mxGeometry x="640" y="1870" width="60" height="30" as="geometry" />
        </mxCell>
        <mxCell id="iQ4g5-kk1la3dPBKRfUD-42" value="" style="rounded=1;whiteSpace=wrap;html=1;fillColor=#b0e3e6;strokeColor=#0e8088;" vertex="1" parent="1">
          <mxGeometry x="640" y="1910" width="60" height="30" as="geometry" />
        </mxCell>
        <mxCell id="iQ4g5-kk1la3dPBKRfUD-43" value="" style="rounded=1;whiteSpace=wrap;html=1;fillColor=#b0e3e6;strokeColor=#0e8088;" vertex="1" parent="1">
          <mxGeometry x="723" y="1830" width="60" height="30" as="geometry" />
        </mxCell>
        <mxCell id="iQ4g5-kk1la3dPBKRfUD-44" value="" style="rounded=1;whiteSpace=wrap;html=1;fillColor=#b0e3e6;strokeColor=#0e8088;" vertex="1" parent="1">
          <mxGeometry x="723" y="1870" width="60" height="30" as="geometry" />
        </mxCell>
        <mxCell id="iQ4g5-kk1la3dPBKRfUD-45" value="" style="rounded=1;whiteSpace=wrap;html=1;fillColor=#b0e3e6;strokeColor=#0e8088;" vertex="1" parent="1">
          <mxGeometry x="723" y="1910" width="60" height="30" as="geometry" />
        </mxCell>
        <mxCell id="iQ4g5-kk1la3dPBKRfUD-46" value="" style="endArrow=classic;startArrow=classic;html=1;rounded=0;entryX=0.5;entryY=0;entryDx=0;entryDy=0;fillColor=#fad7ac;strokeColor=#b46504;strokeWidth=4;exitX=0.5;exitY=1;exitDx=0;exitDy=0;" edge="1" parent="1" source="iQ4g5-kk1la3dPBKRfUD-4" target="iQ4g5-kk1la3dPBKRfUD-78">
          <mxGeometry width="50" height="50" relative="1" as="geometry">
            <mxPoint x="720" y="1490" as="sourcePoint" />
            <mxPoint x="450" y="1660" as="targetPoint" />
          </mxGeometry>
        </mxCell>
        <mxCell id="iQ4g5-kk1la3dPBKRfUD-47" value="" style="endArrow=classic;startArrow=classic;html=1;rounded=0;entryX=0.5;entryY=0;entryDx=0;entryDy=0;exitX=0.5;exitY=1;exitDx=0;exitDy=0;fillColor=#fad7ac;strokeColor=#b46504;strokeWidth=4;" edge="1" parent="1" target="iQ4g5-kk1la3dPBKRfUD-38">
          <mxGeometry width="50" height="50" relative="1" as="geometry">
            <mxPoint x="380" y="1540" as="sourcePoint" />
            <mxPoint x="760" y="1870" as="targetPoint" />
          </mxGeometry>
        </mxCell>
        <mxCell id="iQ4g5-kk1la3dPBKRfUD-48" value="" style="endArrow=classic;startArrow=classic;html=1;rounded=0;exitX=0.5;exitY=1;exitDx=0;exitDy=0;fillColor=#fad7ac;strokeColor=#b46504;strokeWidth=4;entryX=0.5;entryY=0;entryDx=0;entryDy=0;" edge="1" parent="1" target="iQ4g5-kk1la3dPBKRfUD-36">
          <mxGeometry width="50" height="50" relative="1" as="geometry">
            <mxPoint x="290" y="1580" as="sourcePoint" />
            <mxPoint x="670" y="1910" as="targetPoint" />
          </mxGeometry>
        </mxCell>
        <mxCell id="iQ4g5-kk1la3dPBKRfUD-49" value="" style="endArrow=classic;startArrow=classic;html=1;rounded=0;entryX=0.5;entryY=0;entryDx=0;entryDy=0;exitX=0.5;exitY=1;exitDx=0;exitDy=0;fillColor=#d0cee2;strokeColor=#56517e;strokeWidth=3;dashed=1;" edge="1" parent="1" target="iQ4g5-kk1la3dPBKRfUD-81">
          <mxGeometry width="50" height="50" relative="1" as="geometry">
            <mxPoint x="380" y="1500" as="sourcePoint" />
            <mxPoint x="760" y="1830" as="targetPoint" />
          </mxGeometry>
        </mxCell>
        <mxCell id="iQ4g5-kk1la3dPBKRfUD-50" value="" style="endArrow=classic;startArrow=classic;html=1;rounded=0;entryX=0.5;entryY=0;entryDx=0;entryDy=0;exitX=0.5;exitY=1;exitDx=0;exitDy=0;fillColor=#d0cee2;strokeColor=#56517e;strokeWidth=3;dashed=1;" edge="1" parent="1" target="iQ4g5-kk1la3dPBKRfUD-35">
          <mxGeometry width="50" height="50" relative="1" as="geometry">
            <mxPoint x="290" y="1540" as="sourcePoint" />
            <mxPoint x="670" y="1870" as="targetPoint" />
          </mxGeometry>
        </mxCell>
        <mxCell id="iQ4g5-kk1la3dPBKRfUD-51" value="" style="endArrow=classic;startArrow=classic;html=1;rounded=0;entryX=0.5;entryY=0;entryDx=0;entryDy=0;exitX=0.5;exitY=1;exitDx=0;exitDy=0;fillColor=#d0cee2;strokeColor=#56517e;strokeWidth=3;dashed=1;" edge="1" parent="1" target="iQ4g5-kk1la3dPBKRfUD-39">
          <mxGeometry width="50" height="50" relative="1" as="geometry">
            <mxPoint x="390" y="1580" as="sourcePoint" />
            <mxPoint x="770" y="1910" as="targetPoint" />
          </mxGeometry>
        </mxCell>
        <mxCell id="iQ4g5-kk1la3dPBKRfUD-52" value="" style="endArrow=classic;startArrow=classic;html=1;rounded=0;entryX=0.5;entryY=0;entryDx=0;entryDy=0;exitX=0.5;exitY=1;exitDx=0;exitDy=0;fillColor=#fad7ac;strokeColor=#b46504;strokeWidth=4;" edge="1" parent="1" target="iQ4g5-kk1la3dPBKRfUD-19">
          <mxGeometry width="50" height="50" relative="1" as="geometry">
            <mxPoint x="460" y="1500" as="sourcePoint" />
            <mxPoint x="840" y="1830" as="targetPoint" />
          </mxGeometry>
        </mxCell>
        <mxCell id="iQ4g5-kk1la3dPBKRfUD-53" value="" style="endArrow=classic;startArrow=classic;html=1;rounded=0;entryX=0.5;entryY=0;entryDx=0;entryDy=0;exitX=0.5;exitY=1;exitDx=0;exitDy=0;fillColor=#fad7ac;strokeColor=#b46504;strokeWidth=4;" edge="1" parent="1">
          <mxGeometry width="50" height="50" relative="1" as="geometry">
            <mxPoint x="560" y="1540" as="sourcePoint" />
            <mxPoint x="170" y="1870" as="targetPoint" />
          </mxGeometry>
        </mxCell>
        <mxCell id="iQ4g5-kk1la3dPBKRfUD-54" value="" style="endArrow=classic;startArrow=classic;html=1;rounded=0;entryX=0.5;entryY=0;entryDx=0;entryDy=0;exitX=0.5;exitY=1;exitDx=0;exitDy=0;fillColor=#fad7ac;strokeColor=#b46504;strokeWidth=4;" edge="1" parent="1">
          <mxGeometry width="50" height="50" relative="1" as="geometry">
            <mxPoint x="460" y="1580" as="sourcePoint" />
            <mxPoint x="70" y="1910" as="targetPoint" />
          </mxGeometry>
        </mxCell>
        <mxCell id="iQ4g5-kk1la3dPBKRfUD-55" value="" style="endArrow=classic;startArrow=classic;html=1;rounded=0;entryX=0.75;entryY=0;entryDx=0;entryDy=0;exitX=0.75;exitY=1;exitDx=0;exitDy=0;fillColor=#d0cee2;strokeColor=#56517e;strokeWidth=3;dashed=1;" edge="1" parent="1" source="iQ4g5-kk1la3dPBKRfUD-13" target="iQ4g5-kk1la3dPBKRfUD-22">
          <mxGeometry width="50" height="50" relative="1" as="geometry">
            <mxPoint x="540" y="1500" as="sourcePoint" />
            <mxPoint x="920" y="1830" as="targetPoint" />
          </mxGeometry>
        </mxCell>
        <mxCell id="iQ4g5-kk1la3dPBKRfUD-56" value="" style="endArrow=classic;startArrow=classic;html=1;rounded=0;entryX=0.75;entryY=0;entryDx=0;entryDy=0;exitX=0.75;exitY=1;exitDx=0;exitDy=0;fillColor=#d0cee2;strokeColor=#56517e;strokeWidth=3;dashed=1;" edge="1" parent="1">
          <mxGeometry width="50" height="50" relative="1" as="geometry">
            <mxPoint x="460" y="1540" as="sourcePoint" />
            <mxPoint x="67" y="1870" as="targetPoint" />
          </mxGeometry>
        </mxCell>
        <mxCell id="iQ4g5-kk1la3dPBKRfUD-57" value="" style="endArrow=classic;startArrow=classic;html=1;rounded=0;entryX=0.75;entryY=0;entryDx=0;entryDy=0;exitX=0.75;exitY=1;exitDx=0;exitDy=0;fillColor=#d0cee2;strokeColor=#56517e;strokeWidth=3;dashed=1;" edge="1" parent="1">
          <mxGeometry width="50" height="50" relative="1" as="geometry">
            <mxPoint x="563" y="1580" as="sourcePoint" />
            <mxPoint x="170" y="1910" as="targetPoint" />
          </mxGeometry>
        </mxCell>
        <mxCell id="iQ4g5-kk1la3dPBKRfUD-58" value="" style="endArrow=classic;startArrow=classic;html=1;rounded=0;fillColor=#fad7ac;strokeColor=#b46504;strokeWidth=4;exitX=0.25;exitY=1;exitDx=0;exitDy=0;edgeStyle=orthogonalEdgeStyle;entryX=0.75;entryY=1;entryDx=0;entryDy=0;" edge="1" parent="1" source="iQ4g5-kk1la3dPBKRfUD-40" target="iQ4g5-kk1la3dPBKRfUD-25">
          <mxGeometry width="50" height="50" relative="1" as="geometry">
            <mxPoint x="640" y="1845.35" as="sourcePoint" />
            <mxPoint x="280" y="1844.6399999999999" as="targetPoint" />
            <Array as="points">
              <mxPoint x="655" y="1980" />
              <mxPoint x="265" y="1980" />
            </Array>
          </mxGeometry>
        </mxCell>
        <mxCell id="iQ4g5-kk1la3dPBKRfUD-59" value="" style="endArrow=classic;startArrow=classic;html=1;rounded=0;fillColor=#fad7ac;strokeColor=#b46504;strokeWidth=4;exitX=0.25;exitY=1;exitDx=0;exitDy=0;edgeStyle=orthogonalEdgeStyle;entryX=0.75;entryY=1;entryDx=0;entryDy=0;" edge="1" parent="1" source="iQ4g5-kk1la3dPBKRfUD-44" target="iQ4g5-kk1la3dPBKRfUD-29">
          <mxGeometry width="50" height="50" relative="1" as="geometry">
            <mxPoint x="540" y="1884.5" as="sourcePoint" />
            <mxPoint x="360" y="1884.79" as="targetPoint" />
            <Array as="points">
              <mxPoint x="738" y="2000" />
              <mxPoint x="348" y="2000" />
            </Array>
          </mxGeometry>
        </mxCell>
        <mxCell id="iQ4g5-kk1la3dPBKRfUD-60" value="" style="endArrow=classic;startArrow=classic;html=1;rounded=0;fillColor=#fad7ac;strokeColor=#b46504;strokeWidth=4;exitX=0.5;exitY=1;exitDx=0;exitDy=0;edgeStyle=orthogonalEdgeStyle;entryX=0.5;entryY=1;entryDx=0;entryDy=0;" edge="1" parent="1" source="iQ4g5-kk1la3dPBKRfUD-42" target="iQ4g5-kk1la3dPBKRfUD-27">
          <mxGeometry width="50" height="50" relative="1" as="geometry">
            <mxPoint x="460" y="1924.52" as="sourcePoint" />
            <mxPoint x="280" y="1924.81" as="targetPoint" />
            <Array as="points">
              <mxPoint x="670" y="1990" />
              <mxPoint x="250" y="1990" />
            </Array>
          </mxGeometry>
        </mxCell>
        <mxCell id="iQ4g5-kk1la3dPBKRfUD-61" value="" style="endArrow=classic;startArrow=classic;html=1;rounded=0;fillColor=#d0cee2;strokeColor=#56517e;strokeWidth=3;dashed=1;entryX=0;entryY=0.75;entryDx=0;entryDy=0;exitX=1;exitY=0.75;exitDx=0;exitDy=0;" edge="1" parent="1" source="iQ4g5-kk1la3dPBKRfUD-28" target="iQ4g5-kk1la3dPBKRfUD-85">
          <mxGeometry width="50" height="50" relative="1" as="geometry">
            <mxPoint x="370" y="1853" as="sourcePoint" />
            <mxPoint x="463" y="1849.52" as="targetPoint" />
          </mxGeometry>
        </mxCell>
        <mxCell id="iQ4g5-kk1la3dPBKRfUD-62" value="" style="endArrow=classic;startArrow=classic;html=1;rounded=0;fillColor=#d0cee2;strokeColor=#56517e;strokeWidth=3;dashed=1;entryX=0;entryY=0.75;entryDx=0;entryDy=0;exitX=1;exitY=0.75;exitDx=0;exitDy=0;" edge="1" parent="1" target="iQ4g5-kk1la3dPBKRfUD-41">
          <mxGeometry width="50" height="50" relative="1" as="geometry">
            <mxPoint x="278" y="1894.52" as="sourcePoint" />
            <mxPoint x="465" y="1894.52" as="targetPoint" />
          </mxGeometry>
        </mxCell>
        <mxCell id="iQ4g5-kk1la3dPBKRfUD-63" value="" style="endArrow=classic;startArrow=classic;html=1;rounded=0;fillColor=#d0cee2;strokeColor=#56517e;strokeWidth=3;dashed=1;exitX=1;exitY=0.75;exitDx=0;exitDy=0;entryX=0.041;entryY=0.63;entryDx=0;entryDy=0;entryPerimeter=0;" edge="1" parent="1" target="iQ4g5-kk1la3dPBKRfUD-45">
          <mxGeometry width="50" height="50" relative="1" as="geometry">
            <mxPoint x="363" y="1930" as="sourcePoint" />
            <mxPoint x="410" y="1940" as="targetPoint" />
          </mxGeometry>
        </mxCell>
        <mxCell id="iQ4g5-kk1la3dPBKRfUD-64" value="msql0" style="text;html=1;align=center;verticalAlign=middle;whiteSpace=wrap;rounded=0;" vertex="1" parent="1">
          <mxGeometry x="265" y="1475" width="50" height="20" as="geometry" />
        </mxCell>
        <mxCell id="iQ4g5-kk1la3dPBKRfUD-65" value="msql1" style="text;html=1;align=center;verticalAlign=middle;whiteSpace=wrap;rounded=0;" vertex="1" parent="1">
          <mxGeometry x="265" y="1515" width="50" height="20" as="geometry" />
        </mxCell>
        <mxCell id="iQ4g5-kk1la3dPBKRfUD-66" value="msql2" style="text;html=1;align=center;verticalAlign=middle;whiteSpace=wrap;rounded=0;" vertex="1" parent="1">
          <mxGeometry x="265" y="1555" width="50" height="20" as="geometry" />
        </mxCell>
        <mxCell id="iQ4g5-kk1la3dPBKRfUD-67" value="msql3" style="text;html=1;align=center;verticalAlign=middle;whiteSpace=wrap;rounded=0;" vertex="1" parent="1">
          <mxGeometry x="353.5" y="1475" width="50" height="20" as="geometry" />
        </mxCell>
        <mxCell id="iQ4g5-kk1la3dPBKRfUD-68" value="msql4" style="text;html=1;align=center;verticalAlign=middle;whiteSpace=wrap;rounded=0;" vertex="1" parent="1">
          <mxGeometry x="355" y="1515" width="50" height="20" as="geometry" />
        </mxCell>
        <mxCell id="iQ4g5-kk1la3dPBKRfUD-69" value="msql5" style="text;html=1;align=center;verticalAlign=middle;whiteSpace=wrap;rounded=0;" vertex="1" parent="1">
          <mxGeometry x="355" y="1555" width="50" height="20" as="geometry" />
        </mxCell>
        <mxCell id="iQ4g5-kk1la3dPBKRfUD-70" value="msql6" style="text;html=1;align=center;verticalAlign=middle;whiteSpace=wrap;rounded=0;" vertex="1" parent="1">
          <mxGeometry x="445" y="1475" width="50" height="20" as="geometry" />
        </mxCell>
        <mxCell id="iQ4g5-kk1la3dPBKRfUD-71" value="msql9" style="text;html=1;align=center;verticalAlign=middle;whiteSpace=wrap;rounded=0;" vertex="1" parent="1">
          <mxGeometry x="528" y="1475" width="50" height="20" as="geometry" />
        </mxCell>
        <mxCell id="iQ4g5-kk1la3dPBKRfUD-72" value="msql7" style="text;html=1;align=center;verticalAlign=middle;whiteSpace=wrap;rounded=0;" vertex="1" parent="1">
          <mxGeometry x="445" y="1515" width="50" height="20" as="geometry" />
        </mxCell>
        <mxCell id="iQ4g5-kk1la3dPBKRfUD-73" value="msql10" style="text;html=1;align=center;verticalAlign=middle;whiteSpace=wrap;rounded=0;" vertex="1" parent="1">
          <mxGeometry x="530" y="1515" width="50" height="20" as="geometry" />
        </mxCell>
        <mxCell id="iQ4g5-kk1la3dPBKRfUD-74" value="msql8" style="text;html=1;align=center;verticalAlign=middle;whiteSpace=wrap;rounded=0;" vertex="1" parent="1">
          <mxGeometry x="445" y="1555" width="50" height="20" as="geometry" />
        </mxCell>
        <mxCell id="iQ4g5-kk1la3dPBKRfUD-75" value="msql11" style="text;html=1;align=center;verticalAlign=middle;whiteSpace=wrap;rounded=0;" vertex="1" parent="1">
          <mxGeometry x="528" y="1555" width="50" height="20" as="geometry" />
        </mxCell>
        <mxCell id="iQ4g5-kk1la3dPBKRfUD-76" value="msql-connectivity-service" style="text;html=1;align=center;verticalAlign=middle;whiteSpace=wrap;rounded=0;" vertex="1" parent="1">
          <mxGeometry x="320" y="1430" width="220" height="20" as="geometry" />
        </mxCell>
        <mxCell id="iQ4g5-kk1la3dPBKRfUD-77" value="PCF" style="text;html=1;align=center;verticalAlign=middle;whiteSpace=wrap;rounded=0;" vertex="1" parent="1">
          <mxGeometry x="395" y="1390" width="50" height="20" as="geometry" />
        </mxCell>
        <mxCell id="iQ4g5-kk1la3dPBKRfUD-78" value="msql0" style="text;html=1;align=center;verticalAlign=middle;whiteSpace=wrap;rounded=0;" vertex="1" parent="1">
          <mxGeometry x="465" y="1835" width="50" height="20" as="geometry" />
        </mxCell>
        <mxCell id="iQ4g5-kk1la3dPBKRfUD-79" value="msql1" style="text;html=1;align=center;verticalAlign=middle;whiteSpace=wrap;rounded=0;" vertex="1" parent="1">
          <mxGeometry x="465" y="1875" width="50" height="20" as="geometry" />
        </mxCell>
        <mxCell id="iQ4g5-kk1la3dPBKRfUD-80" value="msql2" style="text;html=1;align=center;verticalAlign=middle;whiteSpace=wrap;rounded=0;" vertex="1" parent="1">
          <mxGeometry x="465" y="1915" width="50" height="20" as="geometry" />
        </mxCell>
        <mxCell id="iQ4g5-kk1la3dPBKRfUD-81" value="msql3" style="text;html=1;align=center;verticalAlign=middle;whiteSpace=wrap;rounded=0;" vertex="1" parent="1">
          <mxGeometry x="553.5" y="1835" width="50" height="20" as="geometry" />
        </mxCell>
        <mxCell id="iQ4g5-kk1la3dPBKRfUD-82" value="msql4" style="text;html=1;align=center;verticalAlign=middle;whiteSpace=wrap;rounded=0;" vertex="1" parent="1">
          <mxGeometry x="555" y="1875" width="50" height="20" as="geometry" />
        </mxCell>
        <mxCell id="iQ4g5-kk1la3dPBKRfUD-83" value="msql5" style="text;html=1;align=center;verticalAlign=middle;whiteSpace=wrap;rounded=0;" vertex="1" parent="1">
          <mxGeometry x="555" y="1915" width="50" height="20" as="geometry" />
        </mxCell>
        <mxCell id="iQ4g5-kk1la3dPBKRfUD-84" value="msql6" style="text;html=1;align=center;verticalAlign=middle;whiteSpace=wrap;rounded=0;" vertex="1" parent="1">
          <mxGeometry x="645" y="1835" width="50" height="20" as="geometry" />
        </mxCell>
        <mxCell id="iQ4g5-kk1la3dPBKRfUD-85" value="msql9" style="text;html=1;align=center;verticalAlign=middle;whiteSpace=wrap;rounded=0;" vertex="1" parent="1">
          <mxGeometry x="728" y="1835" width="50" height="20" as="geometry" />
        </mxCell>
        <mxCell id="iQ4g5-kk1la3dPBKRfUD-86" value="msql7" style="text;html=1;align=center;verticalAlign=middle;whiteSpace=wrap;rounded=0;" vertex="1" parent="1">
          <mxGeometry x="645" y="1875" width="50" height="20" as="geometry" />
        </mxCell>
        <mxCell id="iQ4g5-kk1la3dPBKRfUD-87" value="msql10" style="text;html=1;align=center;verticalAlign=middle;whiteSpace=wrap;rounded=0;" vertex="1" parent="1">
          <mxGeometry x="730" y="1875" width="50" height="20" as="geometry" />
        </mxCell>
        <mxCell id="iQ4g5-kk1la3dPBKRfUD-88" value="msql8" style="text;html=1;align=center;verticalAlign=middle;whiteSpace=wrap;rounded=0;" vertex="1" parent="1">
          <mxGeometry x="645" y="1915" width="50" height="20" as="geometry" />
        </mxCell>
        <mxCell id="iQ4g5-kk1la3dPBKRfUD-89" value="msql11" style="text;html=1;align=center;verticalAlign=middle;whiteSpace=wrap;rounded=0;" vertex="1" parent="1">
          <mxGeometry x="728" y="1915" width="50" height="20" as="geometry" />
        </mxCell>
        <mxCell id="iQ4g5-kk1la3dPBKRfUD-90" value="msql-connectivity-service" style="text;html=1;align=center;verticalAlign=middle;whiteSpace=wrap;rounded=0;" vertex="1" parent="1">
          <mxGeometry x="520" y="1790" width="220" height="20" as="geometry" />
        </mxCell>
        <mxCell id="iQ4g5-kk1la3dPBKRfUD-91" value="PCF" style="text;html=1;align=center;verticalAlign=middle;whiteSpace=wrap;rounded=0;" vertex="1" parent="1">
          <mxGeometry x="595" y="1750" width="50" height="20" as="geometry" />
        </mxCell>
        <mxCell id="iQ4g5-kk1la3dPBKRfUD-92" value="msql0" style="text;html=1;align=center;verticalAlign=middle;whiteSpace=wrap;rounded=0;" vertex="1" parent="1">
          <mxGeometry x="48" y="1835" width="50" height="20" as="geometry" />
        </mxCell>
        <mxCell id="iQ4g5-kk1la3dPBKRfUD-93" value="msql1" style="text;html=1;align=center;verticalAlign=middle;whiteSpace=wrap;rounded=0;" vertex="1" parent="1">
          <mxGeometry x="48" y="1875" width="50" height="20" as="geometry" />
        </mxCell>
        <mxCell id="iQ4g5-kk1la3dPBKRfUD-94" value="msql2" style="text;html=1;align=center;verticalAlign=middle;whiteSpace=wrap;rounded=0;" vertex="1" parent="1">
          <mxGeometry x="48" y="1915" width="50" height="20" as="geometry" />
        </mxCell>
        <mxCell id="iQ4g5-kk1la3dPBKRfUD-95" value="msql3" style="text;html=1;align=center;verticalAlign=middle;whiteSpace=wrap;rounded=0;" vertex="1" parent="1">
          <mxGeometry x="136.5" y="1835" width="50" height="20" as="geometry" />
        </mxCell>
        <mxCell id="iQ4g5-kk1la3dPBKRfUD-96" value="msql4" style="text;html=1;align=center;verticalAlign=middle;whiteSpace=wrap;rounded=0;" vertex="1" parent="1">
          <mxGeometry x="138" y="1875" width="50" height="20" as="geometry" />
        </mxCell>
        <mxCell id="iQ4g5-kk1la3dPBKRfUD-97" value="msql5" style="text;html=1;align=center;verticalAlign=middle;whiteSpace=wrap;rounded=0;" vertex="1" parent="1">
          <mxGeometry x="138" y="1915" width="50" height="20" as="geometry" />
        </mxCell>
        <mxCell id="iQ4g5-kk1la3dPBKRfUD-98" value="msql6" style="text;html=1;align=center;verticalAlign=middle;whiteSpace=wrap;rounded=0;" vertex="1" parent="1">
          <mxGeometry x="228" y="1835" width="50" height="20" as="geometry" />
        </mxCell>
        <mxCell id="iQ4g5-kk1la3dPBKRfUD-99" value="msql9" style="text;html=1;align=center;verticalAlign=middle;whiteSpace=wrap;rounded=0;" vertex="1" parent="1">
          <mxGeometry x="311" y="1835" width="50" height="20" as="geometry" />
        </mxCell>
        <mxCell id="iQ4g5-kk1la3dPBKRfUD-100" value="msql7" style="text;html=1;align=center;verticalAlign=middle;whiteSpace=wrap;rounded=0;" vertex="1" parent="1">
          <mxGeometry x="228" y="1875" width="50" height="20" as="geometry" />
        </mxCell>
        <mxCell id="iQ4g5-kk1la3dPBKRfUD-101" value="msql10" style="text;html=1;align=center;verticalAlign=middle;whiteSpace=wrap;rounded=0;" vertex="1" parent="1">
          <mxGeometry x="313" y="1875" width="50" height="20" as="geometry" />
        </mxCell>
        <mxCell id="iQ4g5-kk1la3dPBKRfUD-102" value="msql8" style="text;html=1;align=center;verticalAlign=middle;whiteSpace=wrap;rounded=0;" vertex="1" parent="1">
          <mxGeometry x="228" y="1915" width="50" height="20" as="geometry" />
        </mxCell>
        <mxCell id="iQ4g5-kk1la3dPBKRfUD-103" value="msql11" style="text;html=1;align=center;verticalAlign=middle;whiteSpace=wrap;rounded=0;" vertex="1" parent="1">
          <mxGeometry x="311" y="1915" width="50" height="20" as="geometry" />
        </mxCell>
        <mxCell id="iQ4g5-kk1la3dPBKRfUD-104" value="msql-connectivity-service" style="text;html=1;align=center;verticalAlign=middle;whiteSpace=wrap;rounded=0;" vertex="1" parent="1">
          <mxGeometry x="103" y="1790" width="220" height="20" as="geometry" />
        </mxCell>
        <mxCell id="iQ4g5-kk1la3dPBKRfUD-105" value="PCF" style="text;html=1;align=center;verticalAlign=middle;whiteSpace=wrap;rounded=0;" vertex="1" parent="1">
          <mxGeometry x="178" y="1750" width="50" height="20" as="geometry" />
        </mxCell>
        <mxCell id="iQ4g5-kk1la3dPBKRfUD-106" value="site1" style="text;html=1;align=center;verticalAlign=middle;whiteSpace=wrap;rounded=0;" vertex="1" parent="1">
          <mxGeometry x="260" y="1370" width="50" height="20" as="geometry" />
        </mxCell>
        <mxCell id="iQ4g5-kk1la3dPBKRfUD-107" value="site3" style="text;html=1;align=center;verticalAlign=middle;whiteSpace=wrap;rounded=0;" vertex="1" parent="1">
          <mxGeometry x="40" y="1730" width="50" height="20" as="geometry" />
        </mxCell>
        <mxCell id="iQ4g5-kk1la3dPBKRfUD-108" value="site2" style="text;html=1;align=center;verticalAlign=middle;whiteSpace=wrap;rounded=0;" vertex="1" parent="1">
          <mxGeometry x="465" y="1730" width="50" height="20" as="geometry" />
        </mxCell>
      </root>
    </mxGraphModel>
  </diagram>
</mxfile>
